<?xml version="1.0" standalone="no"?>
<!DOCTYPE svg PUBLIC "-//W3C//DTD SVG 1.0//EN" "http://www.w3.org/TR/2001/REC-SVG-20010904/DTD/svg10.dtd">
<svg xmlns="http://www.w3.org/2000/svg" xmlns:xlink="http://www.w3.org/1999/xlink" id="body_1" width="80" height="80">

<g transform="matrix(0.15625 0 0 0.15625 0 0)">
    <path transform="matrix(8 0 0 8 0 0)"  d="M5.949 18.05L4.653 20.209L7.791 23.348L9.948999 22.052L11.091 22.516L11.294 23.051L11.781 25L16.53 25C 18.296 22.803 20.63 21.09 23.306 20.066L23.306 20.066L22.046 18.062L22.518 16.912L23.052 16.707L25 16.219L25 11.781L22.554 11.17L22.051 9.95L23.347 7.791L20.209 4.652L18.051 5.948L16.909 5.484L16.706 4.949L16.219 3L11.781 3L11.169 5.452001L9.949 5.948L7.791 4.652L4.653 7.791L5.949 9.950001L5.446 11.17L3 11.781L3 16.219L5.449 16.83L5.949 18.05zM14 6.999999C 17.86 6.999999 21 10.141 21 14C 21 17.859 17.86 21 14 21z" stroke="none" fill="#302E2E" fill-rule="nonzero" />
    <path transform="matrix(8 0 0 8 0 0)"  d="M19 14C 19 12.61929 18.51184 11.44078 17.53553 10.46447C 16.55922 9.488155 15.38071 9 14 9C 12.61929 9 11.44078 9.488155 10.46447 10.46447C 9.488155 11.44078 9 12.61929 9 14C 9 15.38071 9.488155 16.55922 10.46447 17.53553C 11.44078 18.51184 12.61929 19 14 19C 15.38071 19 16.55922 18.51184 17.53553 17.53553C 18.51184 16.55922 19 15.38071 19 14" stroke="none" fill="#302E2E" fill-rule="nonzero" />
    <path transform="matrix(8 0 0 8 0 0)"  d="M16.48 44.934L14.414 47L17 49.586L19.066 47.52C 18.108 46.758 17.242 45.891 16.48 44.934z" stroke="none" fill="#302E2E" fill-rule="nonzero" />
    <path transform="matrix(8 0 0 8 0 0)"  d="M29 47C 22.383 47 17 41.617 17 35C 17 28.383 22.383 23 29 23C 29.613 23 30.218 23.06 30.818 23.152C 30.453 22.483 30.154 21.775 29.893 21.049C 29.594 21.03 29.286 21 29 21C 21.28 21 15 27.28 15 35C 15 42.72 21.28 49 29 49C 30.35 49 31.698 48.785 33.019 48.384C 33.016 48.255 33 48.13 33 48C 33 47.406 33.044 46.822 33.112 46.246C 31.795 46.729 30.406 47 29 47z" stroke="none" fill="#302E2E" fill-rule="nonzero" />
    <path transform="matrix(8 0 0 8 0 0)"  d="M3.95 55.465C 3.337 56.077 3 56.891 3 57.758C 3 59.546 4.455 61 6.243 61C 7.109 61 7.923 60.663 8.536 60.05L8.536 60.05L16.586 52L12 47.414L3.95 55.465zM6.707 58.707L5.293 57.293L6.636 55.95L8.049999 57.364zM9.464 55.949L8.049999 54.535L9.463999 53.121L10.878 54.535zM13.707 51.707L12.293 53.121L10.879 51.707L12.293 50.293z" stroke="none" fill="#302E2E" fill-rule="nonzero" />
    <path transform="matrix(8 0 0 8 0 0)"  d="M40.99 34.748C 41.611 34.418 42.262 34.141 42.931 33.9C 42.85 32.891 42.657 31.889 42.354 30.905C 41.585 30.821 40.839 30.667 40.109 30.47C 40.665 31.822 40.959 33.267 40.99 34.748z" stroke="none" fill="#302E2E" fill-rule="nonzero" />
    <path transform="matrix(8 0 0 8 0 0)"  d="M45 14L47 14L47 22L45 22L45 14z" stroke="none" fill="#302E2E" fill-rule="nonzero" />
    <path transform="matrix(8 0 0 8 0 0)"  d="M44 29C 51.168 29 57 23.168 57 16C 57 8.832001 51.168 3 44 3L44 3L44 29zM35 10L41 10L41 14L43 14L43 12L47 12L47 8L53 8L53 24L35 24z" stroke="none" fill="#302E2E" fill-rule="nonzero" />
    <path transform="matrix(8 0 0 8 0 0)"  d="M37 12L39 12L39 22L37 22L37 12z" stroke="none" fill="#302E2E" fill-rule="nonzero" />
    <path transform="matrix(8 0 0 8 0 0)"  d="M49 10L51 10L51 22L49 22L49 10z" stroke="none" fill="#302E2E" fill-rule="nonzero" />
    <path transform="matrix(8 0 0 8 0 0)"  d="M41 16L43 16L43 22L41 22L41 16z" stroke="none" fill="#302E2E" fill-rule="nonzero" />
    <path transform="matrix(8 0 0 8 0 0)"  d="M38.924 36.085C 38.97 35.696 39 35.335 39 35C 39 32.985 38.393 31.048 37.252 29.378C 35.443 28.462 33.841 27.198 32.544 25.662C 31.404 25.228 30.214 25 29 25C 23.486 25 19 29.486 19 35C 19 40.514 23.486 45 29 45C 30.598 45 32.174 44.594 33.596 43.854C 34.499 40.721 36.396 38.015 38.924 36.085zM23 36L21 36L21 34L23 34zM27 36L25 36L25 34L27 34zM31 36L29 36L29 34L31 34zM35 36L33 36L33 34L35 34z" stroke="none" fill="#302E2E" fill-rule="nonzero" />
    <path transform="matrix(8 0 0 8 0 0)"  d="M52.269 48C 51.696 47.263 51.029 46.502 50.263 45.736C 49.497 44.97 48.737 44.311 48 43.738C 47.263 44.311 46.503 44.97 45.737 45.736C 44.971 46.502 44.304 47.263 43.731 48C 44.304 48.737 44.971 49.498 45.737 50.264C 46.503 51.029 47.263 51.696 48 52.269C 48.737 51.696 49.498 51.03 50.263 50.264C 51.029 49.498 51.696 48.737 52.269 48zM48 49C 47.448 49 47 48.552 47 48C 47 47.448 47.448 47 48 47z" stroke="none" fill="#302E2E" fill-rule="nonzero" />
    <path transform="matrix(8 0 0 8 0 0)"  d="M42.547 49.702C 41.033 52.148 40.667 54.106 41.281 54.719C 41.894 55.331 43.854 54.965 46.302 53.45C 45.617 52.894 44.948 52.304 44.323 51.678C 43.698 51.052 43.103 50.386 42.547 49.702z" stroke="none" fill="#302E2E" fill-rule="nonzero" />
    <path transform="matrix(8 0 0 8 0 0)"  d="M44.323 44.322C 44.946 43.699 45.611 43.106 46.293 42.552C 44.60201 41.507 43.138 40.996 42.2 40.996C 41.784 40.996 41.47001 41.093 41.28201 41.281C 40.66901 41.894 41.034 43.852 42.548 46.298C 43.103 45.614 43.69801 44.948 44.32301 44.32199L44.32301 44.32199L44.323 44.322z" stroke="none" fill="#302E2E" fill-rule="nonzero" />
    <path transform="matrix(8 0 0 8 0 0)"  d="M51.677 51.678C 51.051 52.304 50.382 52.894 49.697 53.45C 52.145 54.967 54.105 55.334 54.719 54.719C 55.332 54.106 54.967 52.148 53.453 49.702C 52.897 50.386 52.302 51.052 51.677 51.67801L51.677 51.67801L51.677 51.678z" stroke="none" fill="#302E2E" fill-rule="nonzero" />
    <path transform="matrix(8 0 0 8 0 0)"  d="M53.801 40.996C 52.863 40.996 51.399 41.507 49.708 42.552C 50.39 43.107 51.054 43.699 51.678 44.322C 52.303 44.947 52.897 45.614 53.453 46.298C 54.967 43.852 55.333 41.894 54.719 41.281C 54.531 41.094 54.216 40.996 53.801 40.996z" stroke="none" fill="#302E2E" fill-rule="nonzero" />
    <path transform="matrix(8 0 0 8 0 0)"  d="M48 35C 40.832 35 35 40.832 35 48C 35 55.168 40.832 61 48 61L48 61L48 35zM56.133 56.133C 55.533 56.733 54.738 56.999 53.823 56.999C 52.141 56.999 50.049 56.097 48 54.718C 45.951 56.097 43.86 56.999 42.177 56.999C 41.261 56.999 40.467 56.732 39.867 56.133C 38.166 54.432 39.154 51.165 41.284 48C 39.154 44.835 38.166 41.568 39.867 39.867C 41.568 38.165 44.835 39.153 48 41.284C 51.164 39.154 54.431 38.165 56.133 39.867C 57.834 41.568 56.846 44.835 54.716 48C 56.846 51.165 57.833 54.432 56.133 56.133z" stroke="none" fill="#302E2E" fill-rule="nonzero" />
</g>
</svg>